<?xml version="1.0" encoding="UTF-8"?>
<svg id="Layer_1" xmlns="http://www.w3.org/2000/svg" width="588.81" height="183.51" xmlns:xlink="http://www.w3.org/1999/xlink" viewBox="0 0 588.81 183.51">
  <defs>
    <style>
      .cls-1 {
        fill: url(#linear-gradient-8);
      }

      .cls-2 {
        fill: url(#linear-gradient-7);
      }

      .cls-3 {
        fill: url(#linear-gradient-5);
      }

      .cls-4 {
        fill: url(#linear-gradient-6);
      }

      .cls-5 {
        fill: url(#linear-gradient-9);
      }

      .cls-6 {
        fill: url(#linear-gradient-4);
      }

      .cls-7 {
        fill: url(#linear-gradient-3);
      }

      .cls-8 {
        fill: url(#linear-gradient-2);
      }

      .cls-9 {
        fill: url(#linear-gradient);
      }

      .cls-10 {
        clip-path: url(#clippath-12);
      }

      .cls-11 {
        clip-path: url(#clippath-3);
      }

      .cls-12 {
        clip-path: url(#clippath-6);
      }

      .cls-13 {
        clip-path: url(#clippath-9);
      }

      .cls-14 {
        fill: url(#linear-gradient-10);
      }

      .cls-15 {
        fill: url(#linear-gradient-11);
      }

      .cls-16 {
        fill: url(#linear-gradient-12);
      }

      .cls-17 {
        fill: url(#linear-gradient-13);
      }

      .cls-18 {
        fill: url(#linear-gradient-19);
      }

      .cls-19 {
        fill: url(#linear-gradient-14);
      }

      .cls-20 {
        fill: url(#linear-gradient-21);
      }

      .cls-21 {
        fill: url(#linear-gradient-20);
      }

      .cls-22 {
        fill: url(#linear-gradient-22);
      }

      .cls-23 {
        fill: url(#linear-gradient-23);
      }

      .cls-24 {
        fill: url(#linear-gradient-15);
      }

      .cls-25 {
        fill: url(#linear-gradient-16);
      }

      .cls-26 {
        fill: url(#linear-gradient-17);
      }

      .cls-27 {
        fill: url(#linear-gradient-18);
      }

      .cls-28 {
        fill: url(#linear-gradient-24);
      }

      .cls-29 {
        clip-path: url(#clippath);
      }
    </style>
    <linearGradient id="linear-gradient" x1="26.56" y1="104.72" x2="118.66" y2="104.72" gradientUnits="userSpaceOnUse">
      <stop offset="0" stop-color="#ffc750"/>
      <stop offset="1" stop-color="#ff6895"/>
    </linearGradient>
    <clipPath id="clippath">
      <path class="cls-9" d="M116.37,116.12c-7.68,7.68-19.27,13.97-32.37,17.48-27.5,7.37-52.45.45-56.8-15.75-2.19-8.21,1.25-17.19,9.67-25.28,7.74-7.4,18.97-13.36,31.63-16.76,14.49-3.88,29.07-3.9,40.01-.05l-2.99,8.51c-9.26-3.26-21.9-3.17-34.68.26-11.22,3-21.06,8.17-27.72,14.55-5.89,5.62-8.5,11.61-7.21,16.41,2.61,9.74,21.62,15.82,45.73,9.36,12.77-3.42,23.81-9.62,30.2-17.08l6.81,5.84c-.72.85-1.49,1.67-2.31,2.48h.02Z"/>
    </clipPath>
    <linearGradient id="linear-gradient-2" x1="142.25" y1="28.11" x2="142.32" y2="28.11" xlink:href="#linear-gradient"/>
    <linearGradient id="linear-gradient-3" x1="142.4" y1="27.96" x2="142.48" y2="27.96" xlink:href="#linear-gradient"/>
    <linearGradient id="linear-gradient-4" x1="97.3" y1="84.97" x2="63.34" y2="116.82" gradientUnits="userSpaceOnUse">
      <stop offset="0" stop-color="#ff6895"/>
      <stop offset="1" stop-color="#2b41fb"/>
    </linearGradient>
    <linearGradient id="linear-gradient-5" x1="73.96" y1="115.43" x2="156.98" y2="115.43" xlink:href="#linear-gradient"/>
    <linearGradient id="linear-gradient-6" x1="73.96" y1="115.43" x2="156.98" y2="115.43" xlink:href="#linear-gradient"/>
    <clipPath id="clippath-3">
      <path class="cls-4" d="M151.06,151.03c-11.86,11.86-36.92,5.37-57.05-14.76-10.6-10.6-17.91-23.23-20.05-34.62l8.87-1.66c1.81,9.65,8.21,20.55,17.56,29.9,17.66,17.66,37.16,21.89,44.28,14.76,7.13-7.13,2.9-26.63-14.76-44.28-9.35-9.35-20.25-15.75-29.9-17.56l1.66-8.87c11.39,2.14,24.02,9.45,34.62,20.05,20.13,20.13,26.62,45.19,14.76,57.05Z"/>
    </clipPath>
    <linearGradient id="linear-gradient-7" x1="23.76" y1="59.56" x2="23.8" y2="59.56" xlink:href="#linear-gradient"/>
    <linearGradient id="linear-gradient-8" x1="23.59" y1="59.44" x2="23.63" y2="59.44" xlink:href="#linear-gradient"/>
    <linearGradient id="linear-gradient-9" x1="99.67" y1="99.46" x2="143.26" y2="143.56" gradientUnits="userSpaceOnUse">
      <stop offset="0" stop-color="#ff6895"/>
      <stop offset=".54" stop-color="#ffc750"/>
      <stop offset="1" stop-color="#7ac2a7"/>
    </linearGradient>
    <linearGradient id="linear-gradient-10" x1="72.95" y1="72.6" x2="136.57" y2="72.6" xlink:href="#linear-gradient"/>
    <linearGradient id="linear-gradient-11" x1="72.95" y1="72.6" x2="136.57" y2="72.6" xlink:href="#linear-gradient"/>
    <clipPath id="clippath-6">
      <path class="cls-15" d="M116.15,116.37c-.81.81-1.66,1.56-2.5,2.28l-5.85-6.81c7.46-6.39,13.7-17.39,17.11-30.15,6.46-24.13.38-43.12-9.36-45.73-4.82-1.29-10.82,1.34-16.41,7.21-6.38,6.66-11.55,16.51-14.55,27.72-3.42,12.77-3.52,25.41-.26,34.68l-8.51,2.99c-3.85-10.94-3.83-25.52.05-40.01,3.39-12.66,9.34-23.9,16.74-31.65,8.07-8.42,17.07-11.88,25.28-9.69,16.2,4.34,23.11,29.28,15.74,56.79-3.51,13.1-9.8,24.69-17.48,32.37h0Z"/>
    </clipPath>
    <linearGradient id="linear-gradient-12" x1="195.92" y1="117.69" x2="195.96" y2="117.69" xlink:href="#linear-gradient"/>
    <linearGradient id="linear-gradient-13" x1="196.12" y1="117.81" x2="196.17" y2="117.81" xlink:href="#linear-gradient"/>
    <linearGradient id="linear-gradient-14" x1="112.51" y1="24.79" x2="100.22" y2="106.31" xlink:href="#linear-gradient"/>
    <linearGradient id="linear-gradient-15" x1="105.8" y1="93.77" x2="144.68" y2="93.77" xlink:href="#linear-gradient"/>
    <linearGradient id="linear-gradient-16" x1="105.8" y1="93.77" x2="144.68" y2="93.77" xlink:href="#linear-gradient"/>
    <clipPath id="clippath-9">
      <path class="cls-25" d="M112.74,77.44c8.1,3.57,16.3,9.28,23.56,16.54,3.13,3.13,5.93,6.38,8.39,9.68l-6.44,6.45c-2.34-3.25-5.11-6.53-8.32-9.74-7.52-7.52-16.04-13.13-24.11-15.98l6.94-6.94Z"/>
    </clipPath>
    <linearGradient id="linear-gradient-17" x1="32.04" y1="64.74" x2="32.08" y2="64.74" xlink:href="#linear-gradient"/>
    <linearGradient id="linear-gradient-18" x1="31.88" y1="64.62" x2="31.92" y2="64.62" xlink:href="#linear-gradient"/>
    <linearGradient id="linear-gradient-19" x1="136.76" y1="100.42" x2="108.98" y2="83.03" xlink:href="#linear-gradient"/>
    <linearGradient id="linear-gradient-20" x1="48.63" y1="122.16" y2="122.16" xlink:href="#linear-gradient"/>
    <linearGradient id="linear-gradient-21" x1="48.63" y1="122.16" y2="122.16" xlink:href="#linear-gradient"/>
    <clipPath id="clippath-12">
      <path class="cls-20" d="M84,133.6c13.1-3.51,24.69-9.8,32.37-17.48h-.02c.81-.82,1.59-1.64,2.31-2.49l-6.81-5.84c-6.38,7.45-17.42,13.65-30.2,17.08-9.42,2.52-18.06,3.14-25.25,2.36l-7.78,7.78c9.95,2.37,22.38,2.08,35.38-1.4Z"/>
    </clipPath>
    <linearGradient id="linear-gradient-22" x1="139.04" y1="31.83" x2="139.11" y2="31.83" xlink:href="#linear-gradient"/>
    <linearGradient id="linear-gradient-23" x1="139.19" y1="31.67" x2="139.27" y2="31.67" xlink:href="#linear-gradient"/>
    <linearGradient id="linear-gradient-24" x1="105.04" y1="118.45" x2="63.44" y2="131.94" xlink:href="#linear-gradient-4"/>
  </defs>
  <g>
    <path d="M218.84,79.33v6.49h-21.33v58.42h-8.35v-58.42h-21.33v-6.49h51Z"/>
    <path d="M225.8,144.25v-64.91h30.79c12.52,0,20.03,6.31,20.03,16.69,0,6.86-4.91,12.52-12.33,14.84v.46c4.91,1.95,7.33,6.03,7.97,11.68l1.39,12.61c.37,3.25,1.3,5.56,3.43,7.23v1.39h-9.83c-1.11-2.04-1.76-4.54-2.04-7.88l-.93-12.52c-.46-6.49-3.89-9.74-11.59-9.74h-18.55v30.14h-8.35ZM255.38,107.8c8.16,0,12.8-4.08,12.8-11.13s-4.27-11.13-11.59-11.13h-22.44v22.26h21.24Z"/>
    <path d="M283.44,79.33h8.35v64.91h-8.35v-64.91Z"/>
    <path d="M301.05,79.33h44.7v6.49h-36.35v21.79h21.7v6.49h-21.7v30.14h-8.35v-64.91Z"/>
    <path d="M352.72,79.33h44.7v6.49h-36.35v21.79h21.7v6.49h-21.7v23.65h38.21v6.49h-46.55v-64.91Z"/>
    <path d="M429.61,139.14c11.5,0,18.82-6.86,19.84-18.55h8.07c-1.3,14.84-12.06,25.04-28.28,25.04-18.18,0-30.23-12.7-30.23-33.38s11.87-34.31,30.51-34.31c15.49,0,26.24,8.35,28.1,24.11h-8.25c-1.39-11.31-8.72-17.62-20.4-17.62-13.08,0-21.24,10.02-21.24,27.36s8.25,27.36,21.88,27.36Z"/>
    <path d="M510.7,79.33v6.49h-21.33v58.42h-8.35v-58.42h-21.33v-6.49h51Z"/>
    <path d="M529.2,78.96h8.9l24.02,65.28h-8.72l-6.68-19.01h-26.52l-6.68,19.01h-8.35l24.02-65.28ZM522.43,118.74h22.07l-11.04-31.44-11.04,31.44Z"/>
    <path d="M338.7,63.79v2.26c-.4.23-.84.35-1.3.35-1.84.03-3.47-1.2-3.94-2.97-3.37,3.63-9.03,3.83-12.66.46-3.63-3.37-3.83-9.03-.46-12.66,3.37-3.63,9.03-3.83,12.66-.46.07.07.14.13.21.2v-2.26h2.68v12.86c0,1.6.82,2.25,1.77,2.25l1.06-.02v-.02ZM333.22,57.37c0-3.49-2.85-6.32-6.34-6.32s-6.32,2.85-6.32,6.34,2.85,6.32,6.34,6.32c3.48-.04,6.27-2.86,6.26-6.34h.06ZM342.14,39.88h2.82v26.52h-2.82v-26.52ZM313.94,57.25c.03,3.65-2.14,6.97-5.48,8.43-3.37,1.45-7.3.69-9.87-1.93v2.3h-2.7v-26.75h2.7v11.43c2.58-2.62,6.5-3.38,9.87-1.93,3.33,1.48,5.47,4.81,5.43,8.46h.05ZM311.26,57.25c-.04-3.5-2.92-6.3-6.42-6.26-3.5.04-6.3,2.92-6.26,6.42.04,3.47,2.86,6.26,6.34,6.26,1.68,0,3.3-.66,4.49-1.86,1.19-1.21,1.85-2.85,1.85-4.55h0ZM272.79,57.37c.07-4.97,4.15-8.95,9.12-8.88,4.97.06,8.95,4.15,8.88,9.12-.07,4.97-4.15,8.95-9.12,8.88-2.39-.04-4.68-1.02-6.35-2.74-1.68-1.7-2.61-4-2.59-6.38h.05ZM288.14,57.37c0-3.5-2.84-6.34-6.34-6.34s-6.34,2.84-6.34,6.34,2.84,6.34,6.34,6.34c3.48-.03,6.29-2.86,6.29-6.34h.05ZM259.19,51.98v.79c.1,6.74-4.81,12.52-11.47,13.51-6.66.88-12.92-3.37-14.58-9.87-1.76-6.51,1.5-13.33,7.68-16.05,6.19-2.57,13.32-.07,16.56,5.79l-2.35,1.35c-2.44-4.5-7.79-6.53-12.6-4.8-4.82,1.81-7.68,6.79-6.79,11.86.85,5.68,6.15,9.6,11.84,8.75,4.52-.67,8.07-4.23,8.75-8.75h-10.24v-2.62l13.2.02v.02ZM264.83,39.91h2.81v26.52h-2.81v-26.52ZM228.18,39.91v26.52h-5.68v-10.68h-10.59v10.69h-5.69v-26.56h5.73v10.65h10.59v-10.65l5.65.04ZM203.93,45.09h-6.48v21.34h-5.6v-21.38h-6.46v-5.18h18.65l-.1,5.21ZM173.62,45.09v5.56h8.57v5.1h-8.57v5.48h10.01v5.12h-15.79v-26.47h15.79v5.13l-10.01.08Z"/>
  </g>
  <g>
    <g>
      <path class="cls-9" d="M116.37,116.12c-7.68,7.68-19.27,13.97-32.37,17.48-27.5,7.37-52.45.45-56.8-15.75-2.19-8.21,1.25-17.19,9.67-25.28,7.74-7.4,18.97-13.36,31.63-16.76,14.49-3.88,29.07-3.9,40.01-.05l-2.99,8.51c-9.26-3.26-21.9-3.17-34.68.26-11.22,3-21.06,8.17-27.72,14.55-5.89,5.62-8.5,11.61-7.21,16.41,2.61,9.74,21.62,15.82,45.73,9.36,12.77-3.42,23.81-9.62,30.2-17.08l6.81,5.84c-.72.85-1.49,1.67-2.31,2.48h.02Z"/>
      <g class="cls-29">
        <g>
          <polygon class="cls-8" points="142.31 28.09 142.32 28.13 142.25 28.11 142.31 28.09"/>
          <polygon class="cls-7" points="142.41 27.98 142.4 27.94 142.48 27.95 142.41 27.98"/>
        </g>
      </g>
    </g>
    <path class="cls-6" d="M116.37,116.12c-7.68,7.68-19.27,13.97-32.37,17.48-27.5,7.37-52.45.45-56.8-15.75-2.19-8.21,1.25-17.19,9.67-25.28,7.74-7.4,18.97-13.36,31.63-16.76,14.49-3.88,29.07-3.9,40.01-.05l-2.99,8.51c-9.26-3.26-21.9-3.17-34.68.26-11.22,3-21.06,8.17-27.72,14.55-5.89,5.62-8.5,11.61-7.21,16.41,2.61,9.74,21.62,15.82,45.73,9.36,12.77-3.42,23.81-9.62,30.2-17.08l6.81,5.84c-.72.85-1.49,1.67-2.31,2.48h.02Z"/>
    <g>
      <path class="cls-3" d="M151.06,151.03c-11.86,11.86-36.92,5.37-57.05-14.76-10.6-10.6-17.91-23.23-20.05-34.62l8.87-1.66c1.81,9.65,8.21,20.55,17.56,29.9,17.66,17.66,37.16,21.89,44.28,14.76,7.13-7.13,2.9-26.63-14.76-44.28-9.35-9.35-20.25-15.75-29.9-17.56l1.66-8.87c11.39,2.14,24.02,9.45,34.62,20.05,20.13,20.13,26.62,45.19,14.76,57.05Z"/>
      <g class="cls-11">
        <g>
          <polygon class="cls-2" points="23.76 59.54 23.78 59.53 23.8 59.59 23.76 59.54"/>
          <polygon class="cls-1" points="23.63 59.46 23.61 59.47 23.59 59.41 23.63 59.46"/>
        </g>
      </g>
    </g>
    <path class="cls-5" d="M151.06,151.03c-11.86,11.86-36.92,5.37-57.05-14.76-10.6-10.6-17.91-23.23-20.05-34.62l8.87-1.66c1.81,9.65,8.21,20.55,17.56,29.9,17.66,17.66,37.16,21.89,44.28,14.76,7.13-7.13,2.9-26.63-14.76-44.28-9.35-9.35-20.25-15.75-29.9-17.56l1.66-8.87c11.39,2.14,24.02,9.45,34.62,20.05,20.13,20.13,26.62,45.19,14.76,57.05Z"/>
    <g>
      <path class="cls-14" d="M116.15,116.37c-.81.81-1.66,1.56-2.5,2.28l-5.85-6.81c7.46-6.39,13.7-17.39,17.11-30.15,6.46-24.13.38-43.12-9.36-45.73-4.82-1.29-10.82,1.34-16.41,7.21-6.38,6.66-11.55,16.51-14.55,27.72-3.42,12.77-3.52,25.41-.26,34.68l-8.51,2.99c-3.85-10.94-3.83-25.52.05-40.01,3.39-12.66,9.34-23.9,16.74-31.65,8.07-8.42,17.07-11.88,25.28-9.69,16.2,4.34,23.11,29.28,15.74,56.79-3.51,13.1-9.8,24.69-17.48,32.37h0Z"/>
      <g class="cls-12">
        <g>
          <polygon class="cls-16" points="195.96 117.71 195.92 117.74 195.92 117.65 195.96 117.71"/>
          <polygon class="cls-17" points="196.12 117.79 196.16 117.76 196.17 117.85 196.12 117.79"/>
        </g>
      </g>
    </g>
    <path class="cls-19" d="M116.15,116.36c-.81.81-1.66,1.56-2.5,2.28l-5.85-6.81c7.46-6.39,13.7-17.39,17.11-30.15,6.46-24.13.38-43.12-9.36-45.73-4.82-1.29-10.82,1.34-16.41,7.21-6.38,6.66-11.55,16.51-14.55,27.72-3.42,12.77-3.52,25.41-.26,34.68l-8.51,2.99c-3.94-10.94-3.83-25.52.05-40.01,3.39-12.66,9.34-23.9,16.74-31.65,8.07-8.42,17.07-11.88,25.28-9.69,16.2,4.34,23.11,29.28,15.74,56.79-3.51,13.1-9.8,24.69-17.48,32.37h0Z"/>
    <g>
      <path class="cls-24" d="M112.74,77.44c8.1,3.57,16.3,9.28,23.56,16.54,3.13,3.13,5.93,6.38,8.39,9.68l-6.44,6.45c-2.34-3.25-5.11-6.53-8.32-9.74-7.52-7.52-16.04-13.13-24.11-15.98l6.94-6.94Z"/>
      <g class="cls-13">
        <g>
          <polygon class="cls-26" points="32.04 64.72 32.06 64.71 32.08 64.77 32.04 64.72"/>
          <polygon class="cls-27" points="31.92 64.64 31.9 64.65 31.88 64.6 31.92 64.64"/>
        </g>
      </g>
    </g>
    <path class="cls-18" d="M112.74,77.44c8.1,3.57,16.3,9.28,23.56,16.54,3.13,3.13,5.93,6.38,8.39,9.68l-6.44,6.45c-2.34-3.25-5.11-6.53-8.32-9.74-7.52-7.52-16.04-13.13-24.11-15.98l6.94-6.94Z"/>
    <g>
      <path class="cls-21" d="M84,133.6c13.1-3.51,24.69-9.8,32.37-17.48h-.02c.81-.82,1.59-1.64,2.31-2.49l-6.81-5.84c-6.38,7.45-17.42,13.65-30.2,17.08-9.42,2.52-18.06,3.14-25.25,2.36l-7.78,7.78c9.95,2.37,22.38,2.08,35.38-1.4Z"/>
      <g class="cls-10">
        <g>
          <polygon class="cls-22" points="139.1 31.81 139.11 31.85 139.04 31.83 139.1 31.81"/>
          <polygon class="cls-23" points="139.2 31.69 139.19 31.65 139.27 31.67 139.2 31.69"/>
        </g>
      </g>
    </g>
    <path class="cls-28" d="M84,133.6c13.1-3.51,24.69-9.8,32.37-17.48h-.02c.81-.82,1.59-1.64,2.31-2.49l-6.81-5.84c-6.38,7.45-17.42,13.65-30.2,17.08-9.42,2.52-18.06,3.14-25.25,2.36l-.4-.04-7.92,7.69.54.13c9.95,2.37,22.38,2.08,35.38-1.4Z"/>
  </g>
</svg>